<?xml version="1.0" standalone="no"?>
<!DOCTYPE svg PUBLIC "-//W3C//DTD SVG 20010904//EN"
 "http://www.w3.org/TR/2001/REC-SVG-20010904/DTD/svg10.dtd">
<svg version="1.0" xmlns="http://www.w3.org/2000/svg"
 width="512.000000pt" height="512.000000pt" viewBox="0 0 512.000000 512.000000"
 preserveAspectRatio="xMidYMid meet">
<metadata>
Created by potrace 1.14, written by Peter Selinger 2001-2017
</metadata>
<g transform="translate(0.000000,512.000000) scale(0.100000,-0.100000)"
fill="#000000" stroke="none">
<path d="M24 3435 c-26 -26 -26 -28 -22 -143 3 -105 7 -124 35 -182 37 -80 89
-131 185 -186 l73 -42 5 -367 5 -367 24 -19 c20 -17 40 -19 156 -19 l133 0 12
-37 c50 -159 198 -314 356 -372 74 -28 96 -32 194 -37 160 -6 309 49 426 158
l65 61 94 2 c74 1 95 -2 95 -12 0 -8 11 -25 25 -38 l24 -25 807 0 806 0 50
-36 c202 -149 493 -148 699 2 l47 34 376 0 377 0 26 26 25 25 -4 157 c-4 145
-6 161 -31 213 -56 116 -91 143 -412 309 -66 35 -147 77 -180 95 -204 109
-375 194 -405 201 -19 4 -42 10 -50 13 -8 2 -256 6 -550 8 -294 2 -540 5 -545
7 -7 2 -10 98 -9 267 0 298 -3 314 -61 325 -41 7 -445 -1 -495 -11 -116 -22
-236 -75 -525 -230 -33 -18 -114 -60 -180 -95 -129 -67 -258 -135 -342 -181
-29 -16 -53 -27 -54 -26 -1 1 -2 52 -3 112 -3 133 -9 163 -49 238 -36 69 -101
129 -177 165 l-55 27 -472 3 -473 3 -26 -26z"/>
</g>
</svg>
