<?xml version="1.0" encoding="UTF-8"?>
<svg width="450pt" height="450pt" version="1.1" viewBox="100 172 502 213" xmlns="http://www.w3.org/2000/svg" xmlns:xlink="http://www.w3.org/1999/xlink">
 <defs>
  <symbol id="v" overflow="visible">
   <path d="m0.92188-0.0625c-0.054687 0.03125-0.10547 0.054688-0.15625 0.0625-0.042969 0.0078125-0.09375 0.015625-0.15625 0.015625-0.16797 0-0.30469-0.046875-0.40625-0.14062-0.09375-0.09375-0.14062-0.21875-0.14062-0.375s0.046875-0.28125 0.14062-0.375c0.10156-0.09375 0.23828-0.14062 0.40625-0.14062 0.0625 0 0.11328 0.007813 0.15625 0.015625 0.050781 0.011719 0.10156 0.027344 0.15625 0.046875v0.21875c-0.054687-0.03125-0.10547-0.050781-0.15625-0.0625-0.042969-0.019531-0.089844-0.03125-0.14062-0.03125-0.085938 0-0.15625 0.03125-0.21875 0.09375-0.054688 0.054687-0.078125 0.13281-0.078125 0.23438 0 0.10547 0.023437 0.1875 0.078125 0.25 0.0625 0.054688 0.13281 0.078125 0.21875 0.078125 0.050781 0 0.097656-0.003906 0.14062-0.015625 0.050781-0.019531 0.10156-0.046875 0.15625-0.078125z"/>
  </symbol>
  <symbol id="d" overflow="visible">
   <path d="m0.67188-0.54688c-0.023437-0.007813-0.042969-0.015625-0.0625-0.015625-0.023437-0.007812-0.042969-0.015625-0.0625-0.015625-0.0625 0-0.10938 0.023437-0.14062 0.0625-0.03125 0.042969-0.046875 0.10156-0.046875 0.17188v0.34375h-0.25v-0.75h0.25v0.125c0.03125-0.050781 0.0625-0.085938 0.09375-0.10938 0.039063-0.019531 0.09375-0.03125 0.15625-0.03125h0.015625 0.046875z"/>
  </symbol>
  <symbol id="b" overflow="visible">
   <path d="m0.85938-0.375v0.0625h-0.5625c0.007813 0.0625 0.03125 0.10938 0.0625 0.14062 0.039063 0.023437 0.09375 0.03125 0.15625 0.03125 0.050781 0 0.10156-0.003906 0.15625-0.015625 0.050781-0.019531 0.10156-0.046875 0.15625-0.078125v0.1875c-0.054687 0.023438-0.10938 0.039062-0.17188 0.046875-0.054688 0.0078125-0.10938 0.015625-0.17188 0.015625-0.13672 0-0.24219-0.03125-0.3125-0.09375-0.074219-0.070313-0.10938-0.17188-0.10938-0.29688s0.035156-0.21875 0.10938-0.28125c0.070313-0.070312 0.17188-0.10938 0.29688-0.10938s0.21875 0.039063 0.28125 0.10938c0.070312 0.0625 0.10938 0.15625 0.10938 0.28125zm-0.23438-0.078125c0-0.050781-0.015625-0.085937-0.046875-0.10938-0.023437-0.03125-0.058594-0.046875-0.10938-0.046875-0.042969 0-0.078125 0.015625-0.10938 0.046875-0.03125 0.023438-0.046875 0.058594-0.046875 0.10938z"/>
  </symbol>
  <symbol id="c" overflow="visible">
   <path d="m0.45312-0.34375c-0.054687 0-0.09375 0.011719-0.125 0.03125-0.023437 0.023438-0.03125 0.046875-0.03125 0.078125s0.007813 0.058594 0.03125 0.078125c0.019531 0.011719 0.050781 0.015625 0.09375 0.015625 0.039063 0 0.078125-0.015625 0.10938-0.046875s0.046875-0.070312 0.046875-0.125v-0.03125zm0.35938-0.078125v0.42188h-0.23438v-0.10938c-0.03125 0.042969-0.070313 0.074219-0.10938 0.09375-0.042969 0.019531-0.089844 0.03125-0.14062 0.03125-0.085937 0-0.15234-0.019531-0.20312-0.0625-0.042969-0.039062-0.0625-0.097656-0.0625-0.17188 0-0.09375 0.023438-0.16016 0.078125-0.20312 0.0625-0.039063 0.16016-0.0625 0.29688-0.0625h0.14062v-0.015625c0-0.039062-0.015625-0.066406-0.046875-0.078125-0.03125-0.019531-0.078125-0.03125-0.14062-0.03125-0.054687 0-0.10156 0.007813-0.14062 0.015625-0.042969 0.011719-0.085938 0.027344-0.125 0.046875v-0.1875c0.050781-0.007813 0.10156-0.015625 0.15625-0.015625 0.050781-0.007812 0.10156-0.015625 0.15625-0.015625 0.13281 0 0.22656 0.027344 0.28125 0.078125 0.0625 0.054688 0.09375 0.14062 0.09375 0.26562z"/>
  </symbol>
  <symbol id="a" overflow="visible">
   <path d="m0.375-0.96875v0.21875h0.25v0.17188h-0.25v0.3125c0 0.042969 0.003906 0.070313 0.015625 0.078125 0.019531 0.011719 0.050781 0.015625 0.09375 0.015625h0.125v0.17188h-0.20312c-0.10547 0-0.17969-0.019531-0.21875-0.0625-0.03125-0.039062-0.046875-0.10938-0.046875-0.20312v-0.3125h-0.125v-0.17188h0.125v-0.21875z"/>
  </symbol>
  <symbol id="g" overflow="visible">
   <path d="m0.625-0.64062v-0.40625h0.25v1.0469h-0.25v-0.10938c-0.03125 0.042969-0.070312 0.074219-0.10938 0.09375-0.042969 0.019531-0.089844 0.03125-0.14062 0.03125-0.09375 0-0.17188-0.035156-0.23438-0.10938-0.054688-0.070312-0.078125-0.16406-0.078125-0.28125 0-0.11328 0.023438-0.20703 0.078125-0.28125 0.0625-0.070312 0.14062-0.10938 0.23438-0.10938 0.050781 0 0.097656 0.011719 0.14062 0.03125 0.039063 0.023437 0.078125 0.054687 0.10938 0.09375zm-0.15625 0.48438c0.050781 0 0.085938-0.015625 0.10938-0.046875 0.03125-0.039063 0.046875-0.097656 0.046875-0.17188 0-0.070312-0.015625-0.125-0.046875-0.15625-0.023437-0.039062-0.058594-0.0625-0.10938-0.0625-0.054688 0-0.09375 0.023438-0.125 0.0625-0.023438 0.03125-0.03125 0.085938-0.03125 0.15625 0 0.074219 0.007812 0.13281 0.03125 0.17188 0.03125 0.03125 0.070312 0.046875 0.125 0.046875z"/>
  </symbol>
  <symbol id="l" overflow="visible">
   <path d="m0.51562-0.15625c0.050781 0 0.085937-0.015625 0.10938-0.046875 0.03125-0.039063 0.046875-0.097656 0.046875-0.17188 0-0.070312-0.015625-0.125-0.046875-0.15625-0.023438-0.039062-0.058594-0.0625-0.10938-0.0625-0.054687 0-0.09375 0.023438-0.125 0.0625-0.023437 0.03125-0.03125 0.085938-0.03125 0.15625 0 0.074219 0.007813 0.13281 0.03125 0.17188 0.03125 0.03125 0.070313 0.046875 0.125 0.046875zm-0.15625-0.48438c0.03125-0.039063 0.066406-0.070313 0.10938-0.09375 0.039062-0.019531 0.085938-0.03125 0.14062-0.03125 0.09375 0 0.16406 0.039063 0.21875 0.10938 0.0625 0.074219 0.09375 0.16797 0.09375 0.28125 0 0.11719-0.03125 0.21094-0.09375 0.28125-0.054687 0.074219-0.125 0.10938-0.21875 0.10938-0.054687 0-0.10156-0.011719-0.14062-0.03125-0.042969-0.019531-0.078125-0.050781-0.10938-0.09375v0.10938h-0.25v-1.0469h0.25z"/>
  </symbol>
  <symbol id="k" overflow="visible">
   <path d="m0.015625-0.75h0.23438l0.20312 0.51562 0.17188-0.51562h0.25l-0.3125 0.82812c-0.042969 0.082031-0.085938 0.14062-0.125 0.17188-0.042969 0.03125-0.09375 0.046875-0.15625 0.046875h-0.14062v-0.15625h0.078125c0.039062 0 0.066406-0.011719 0.078125-0.03125 0.019531-0.011719 0.035156-0.03125 0.046875-0.0625l0.015625-0.015625z"/>
  </symbol>
  <symbol id="j" overflow="visible">
   <path d="m0.125-1h0.32812l0.23438 0.53125 0.21875-0.53125h0.32812v1h-0.23438v-0.73438l-0.23438 0.54688h-0.15625l-0.23438-0.54688v0.73438h-0.25z"/>
  </symbol>
  <symbol id="i" overflow="visible">
   <path d="m0.10938-0.29688v-0.45312h0.23438v0.078125 0.15625 0.10938 0.14062c0.007812 0.023437 0.019531 0.039063 0.03125 0.046875 0.007812 0.023438 0.019531 0.039062 0.03125 0.046875 0.019531 0.011719 0.039062 0.015625 0.0625 0.015625 0.039062 0 0.078125-0.019531 0.10938-0.0625 0.03125-0.039062 0.046875-0.09375 0.046875-0.15625v-0.375h0.23438v0.75h-0.23438v-0.10938c-0.042969 0.042969-0.085938 0.074219-0.125 0.09375-0.03125 0.019531-0.074219 0.03125-0.125 0.03125-0.085938 0-0.15234-0.023438-0.20312-0.078125-0.042969-0.050781-0.0625-0.12891-0.0625-0.23438z"/>
  </symbol>
  <symbol id="h" overflow="visible">
   <path d="m0.875-0.45312v0.45312h-0.25v-0.34375-0.14062c0-0.019531-0.007812-0.039063-0.015625-0.0625-0.011719-0.007813-0.027344-0.019531-0.046875-0.03125-0.011719-0.007813-0.027344-0.015625-0.046875-0.015625-0.054687 0-0.09375 0.023438-0.125 0.0625-0.023437 0.042969-0.03125 0.09375-0.03125 0.15625v0.375h-0.25v-1.0469h0.25v0.40625c0.03125-0.039063 0.066406-0.070313 0.10938-0.09375 0.039062-0.019531 0.085938-0.03125 0.14062-0.03125 0.082031 0 0.14453 0.027344 0.1875 0.078125 0.050781 0.054688 0.078125 0.13281 0.078125 0.23438z"/>
  </symbol>
  <symbol id="f" overflow="visible">
   <path d="m0.8125-0.625c0.03125-0.050781 0.066406-0.085938 0.10938-0.10938 0.039063-0.019531 0.085937-0.03125 0.14062-0.03125 0.082031 0 0.14453 0.027344 0.1875 0.078125 0.050781 0.054688 0.078125 0.13281 0.078125 0.23438v0.45312h-0.25v-0.39062-0.015625-0.03125c0-0.050781-0.011719-0.085938-0.03125-0.10938-0.011719-0.03125-0.03125-0.046875-0.0625-0.046875-0.042969 0-0.078125 0.023438-0.10938 0.0625-0.023438 0.042969-0.03125 0.09375-0.03125 0.15625v0.375h-0.25v-0.39062c0-0.082031-0.007812-0.13281-0.015625-0.15625-0.011719-0.03125-0.039063-0.046875-0.078125-0.046875-0.042969 0-0.078125 0.023438-0.10938 0.0625-0.023437 0.042969-0.03125 0.09375-0.03125 0.15625v0.375h-0.25v-0.75h0.25v0.10938c0.03125-0.039063 0.0625-0.070313 0.09375-0.09375 0.039063-0.019531 0.082031-0.03125 0.125-0.03125 0.050781 0 0.097656 0.015625 0.14062 0.046875 0.039062 0.023438 0.070312 0.054688 0.09375 0.09375z"/>
  </symbol>
  <symbol id="u" overflow="visible">
   <path d="m0.73438-0.1875h-0.40625l-0.0625 0.1875h-0.26562l0.375-1h0.3125l0.375 1h-0.26562zm-0.34375-0.1875h0.28125l-0.14062-0.39062z"/>
  </symbol>
  <symbol id="t" overflow="visible">
   <path d="m0.10938-0.75h0.25v0.75h-0.25zm0-0.29688h0.25v0.20312h-0.25z"/>
  </symbol>
  <symbol id="s" overflow="visible">
   <path d="m0.46875-0.59375c-0.054688 0-0.09375 0.023438-0.125 0.0625-0.023438 0.03125-0.03125 0.085938-0.03125 0.15625 0 0.074219 0.007812 0.13281 0.03125 0.17188 0.03125 0.03125 0.070312 0.046875 0.125 0.046875 0.050781 0 0.085938-0.015625 0.10938-0.046875 0.03125-0.039063 0.046875-0.097656 0.046875-0.17188 0-0.070312-0.015625-0.125-0.046875-0.15625-0.023437-0.039062-0.058594-0.0625-0.10938-0.0625zm0.15625 0.48438c-0.03125 0.042969-0.070312 0.074219-0.10938 0.09375-0.042969 0.019531-0.089844 0.03125-0.14062 0.03125-0.09375 0-0.17188-0.035156-0.23438-0.10938-0.054688-0.070312-0.078125-0.16406-0.078125-0.28125 0-0.11328 0.023438-0.20703 0.078125-0.28125 0.0625-0.070312 0.14062-0.10938 0.23438-0.10938 0.050781 0 0.097656 0.011719 0.14062 0.03125 0.039063 0.023437 0.078125 0.054687 0.10938 0.09375v-0.10938h0.25v1.0312h-0.25z"/>
  </symbol>
  <symbol id="r" overflow="visible">
   <path d="m0.60938-1.0469v0.15625h-0.125c-0.042969 0-0.070313 0.011719-0.078125 0.03125-0.011719 0.011719-0.015625 0.03125-0.015625 0.0625v0.046875h0.20312v0.17188h-0.20312v0.57812h-0.25v-0.57812h-0.10938v-0.17188h0.10938v-0.046875c0-0.082031 0.019531-0.14453 0.0625-0.1875 0.050781-0.039063 0.125-0.0625 0.21875-0.0625z"/>
  </symbol>
  <symbol id="e" overflow="visible">
   <path d="m0.46875-0.59375c-0.054688 0-0.09375 0.023438-0.125 0.0625-0.023438 0.03125-0.03125 0.085938-0.03125 0.15625 0 0.074219 0.007812 0.13281 0.03125 0.17188 0.03125 0.03125 0.070312 0.046875 0.125 0.046875 0.050781 0 0.09375-0.015625 0.125-0.046875 0.03125-0.039063 0.046875-0.097656 0.046875-0.17188 0-0.070312-0.015625-0.125-0.046875-0.15625-0.03125-0.039062-0.074219-0.0625-0.125-0.0625zm0-0.17188c0.13281 0 0.23828 0.039063 0.3125 0.10938 0.070312 0.0625 0.10938 0.15625 0.10938 0.28125s-0.039063 0.22656-0.10938 0.29688c-0.074219 0.0625-0.17969 0.09375-0.3125 0.09375-0.125 0-0.22656-0.03125-0.29688-0.09375-0.074219-0.070313-0.10938-0.17188-0.10938-0.29688s0.035156-0.21875 0.10938-0.28125c0.070313-0.070312 0.17188-0.10938 0.29688-0.10938z"/>
  </symbol>
  <symbol id="q" overflow="visible">
   <path d="m0.125-1h0.29688l0.35938 0.6875v-0.6875h0.25v1h-0.29688l-0.35938-0.6875v0.6875h-0.25z"/>
  </symbol>
  <symbol id="p" overflow="visible">
   <path d="m0.875-0.45312v0.45312h-0.25v-0.34375-0.14062c0-0.019531-0.007812-0.039063-0.015625-0.0625-0.011719-0.007813-0.027344-0.019531-0.046875-0.03125-0.011719-0.007813-0.027344-0.015625-0.046875-0.015625-0.054687 0-0.09375 0.023438-0.125 0.0625-0.023437 0.042969-0.03125 0.09375-0.03125 0.15625v0.375h-0.25v-0.75h0.25v0.10938c0.03125-0.039063 0.066406-0.070313 0.10938-0.09375 0.039062-0.019531 0.085938-0.03125 0.14062-0.03125 0.082031 0 0.14453 0.027344 0.1875 0.078125 0.050781 0.054688 0.078125 0.13281 0.078125 0.23438z"/>
  </symbol>
  <symbol id="o" overflow="visible">
   <path d="m0.125-1h0.4375c0.125 0 0.21875 0.03125 0.28125 0.09375 0.070312 0.054688 0.10938 0.13281 0.10938 0.23438 0 0.10547-0.039063 0.1875-0.10938 0.25-0.0625 0.054687-0.15625 0.078125-0.28125 0.078125h-0.17188v0.34375h-0.26562zm0.26562 0.1875v0.28125h0.14062c0.050781 0 0.085938-0.007812 0.10938-0.03125 0.03125-0.03125 0.046875-0.066406 0.046875-0.10938 0-0.050781-0.015625-0.085937-0.046875-0.10938-0.023437-0.019531-0.058594-0.03125-0.10938-0.03125z"/>
  </symbol>
  <symbol id="n" overflow="visible">
   <path d="m0.10938-0.75h0.25v0.73438c0 0.10156-0.027344 0.17969-0.078125 0.23438-0.054688 0.050781-0.12109 0.078125-0.20312 0.078125h-0.125v-0.15625h0.046875c0.039062 0 0.066406-0.011719 0.078125-0.03125 0.019531-0.023438 0.03125-0.0625 0.03125-0.125zm0-0.29688h0.25v0.20312h-0.25z"/>
  </symbol>
  <symbol id="m" overflow="visible">
   <path d="m0.71875-0.73438v0.20312c-0.03125-0.019531-0.0625-0.035156-0.09375-0.046875-0.03125-0.007813-0.070312-0.015625-0.10938-0.015625-0.0625 0-0.11719 0.023438-0.15625 0.0625-0.03125 0.03125-0.046875 0.085938-0.046875 0.15625 0 0.074219 0.015625 0.13281 0.046875 0.17188 0.039063 0.03125 0.09375 0.046875 0.15625 0.046875 0.039063 0 0.078125-0.003906 0.10938-0.015625 0.039062-0.007813 0.070312-0.023437 0.09375-0.046875v0.20312c-0.03125 0.011719-0.070312 0.015625-0.10938 0.015625-0.042969 0.0078125-0.085937 0.015625-0.125 0.015625-0.13672 0-0.24219-0.03125-0.3125-0.09375-0.074219-0.070313-0.10938-0.17188-0.10938-0.29688s0.035156-0.21875 0.10938-0.28125c0.070313-0.070312 0.17578-0.10938 0.3125-0.10938 0.039063 0 0.082031 0.007813 0.125 0.015625 0.039063 0 0.078125 0.007812 0.10938 0.015625z"/>
  </symbol>
 </defs>
 <g>
  <path d="m351.24 241.06c0-3.6406-2.9531-6.5898-6.5938-6.5898s-6.5898 2.9531-6.5898 6.5898v33.941c0 3.6406 2.9531 6.5938 6.5898 6.5938 3.6406 0 6.5938-2.9531 6.5938-6.5938z"/>
  <path d="m226.51 293.37c11.785 0 22.457 4.7773 30.184 12.504 7.7227 7.7227 12.504 18.398 12.504 30.184s-4.7773 22.457-12.504 30.184c-7.7227 7.7227-18.395 12.504-30.184 12.504-11.785 0-22.457-4.7773-30.184-12.504-7.7227-7.7266-12.504-18.395-12.504-30.184 0-11.785 4.7773-22.457 12.504-30.184 7.7266-7.7227 18.395-12.504 30.184-12.504zm23.996 18.688c-6.1406-6.1406-14.625-9.9375-23.996-9.9375-9.3711 0-17.855 3.7969-23.996 9.9375s-9.9375 14.625-9.9375 23.996c0 9.3711 3.7969 17.855 9.9375 23.996s14.625 9.9375 23.996 9.9375c9.3711 0 17.855-3.7969 23.996-9.9375 6.1406-6.1406 9.9375-14.625 9.9375-23.996 0-9.3711-3.7969-17.855-9.9375-23.996z"/>
  <path d="m513.84 293.37c11.785 0 22.457 4.7773 30.184 12.504 7.7266 7.7227 12.504 18.395 12.504 30.184 0 11.785-4.7773 22.457-12.504 30.184-7.7266 7.7227-18.395 12.504-30.184 12.504-11.785 0-22.457-4.7773-30.184-12.504-7.7227-7.7266-12.504-18.395-12.504-30.184 0-11.785 4.7773-22.457 12.504-30.184 7.7266-7.7227 18.398-12.504 30.184-12.504zm23.996 18.691c-6.1406-6.1406-14.625-9.9375-23.996-9.9375s-17.855 3.7969-23.996 9.9375-9.9375 14.625-9.9375 23.996 3.7969 17.855 9.9375 23.996c6.1406 6.1406 14.625 9.9375 23.996 9.9375s17.855-3.7969 23.996-9.9375c6.1406-6.1406 9.9375-14.625 9.9375-23.996s-3.7969-17.855-9.9375-23.996z"/>
  <path d="m528.36 336.06c0 8.0156-6.5 14.516-14.52 14.516s-14.52-6.5-14.52-14.516c0-8.0195 6.5-14.52 14.52-14.52s14.52 6.5 14.52 14.52" fill-rule="evenodd"/>
  <path d="m226.51 321.5c8.0391 0 14.559 6.5156 14.559 14.559 0 8.0391-6.5156 14.559-14.559 14.559-8.0391 0-14.559-6.5156-14.559-14.559 0-8.0391 6.5156-14.559 14.559-14.559z" fill-rule="evenodd"/>
  <path d="m233.11 304.34c0-3.6367-2.9531-6.5859-6.5898-6.5859-3.6406 0-6.5938 2.9492-6.5938 6.5859v25.137c0 3.6367 2.9531 6.5859 6.5938 6.5859s6.5898-2.9492 6.5898-6.5859z"/>
  <path d="m258.24 342.65c3.6367 0 6.5859-2.9531 6.5859-6.5938 0-3.6406-2.9492-6.5898-6.5859-6.5898h-25.137c-3.6367 0-6.5859 2.9531-6.5859 6.5898 0 3.6406 2.9492 6.5938 6.5859 6.5938z"/>
  <path d="m219.92 368.21c0 3.4023 2.9531 6.1562 6.5938 6.1562s6.5898-2.7578 6.5898-6.1562v-23.496c0-3.3984-2.9531-6.1562-6.5898-6.1562-3.6406 0-6.5938 2.7578-6.5938 6.1562z"/>
  <path d="m194.62 329.47c-3.543 0-6.418 2.9531-6.418 6.5898 0 3.6406 2.8711 6.5938 6.418 6.5938h24.488c3.543 0 6.418-2.9531 6.418-6.5938s-2.8711-6.5898-6.418-6.5898z"/>
  <path d="m520.44 303.91c0-3.4023-2.9531-6.1602-6.5898-6.1602-3.6406 0-6.5938 2.7578-6.5938 6.1602v23.512c0 3.4023 2.9531 6.1602 6.5938 6.1602s6.5898-2.7578 6.5898-6.1602z"/>
  <path d="m547.82 342.65c3.5703 0 6.4648-2.9531 6.4648-6.5938 0-3.6406-2.8945-6.5898-6.4648-6.5898h-24.668c-3.5703 0-6.4648 2.9531-6.4648 6.5898 0 3.6406 2.8945 6.5938 6.4648 6.5938z"/>
  <path d="m507.25 368.15c0 3.4336 2.9531 6.2148 6.5938 6.2148s6.5898-2.7812 6.5898-6.2148v-23.719c0-3.4336-2.9531-6.2148-6.5898-6.2148-3.6406 0-6.5938 2.7852-6.5938 6.2148z"/>
  <path d="m481.49 329.46c-3.2891 0-5.9531 2.9531-5.9531 6.5898 0 3.6406 2.668 6.5938 5.9531 6.5938h22.723c3.2891 0 5.9531-2.9531 5.9531-6.5938 0-3.6406-2.668-6.5898-5.9531-6.5898z"/>
  <path d="m272.21 347.52h195.95c-0.91797-3.668-1.4062-7.5078-1.4062-11.457 0-26.012 21.086-47.102 47.102-47.102 26.012 0 47.102 21.086 47.102 47.102 0 3.9531-0.48828 7.7891-1.4062 11.457h3.1875c10.031 0 18.242-8.2109 18.242-18.242v-76.953c0-0.40234 0.023438-0.75781 0.14453-1.1406l4.3125-13.598h-59.543l-5.7383 28.445c-0.6875 3.4102-4.543 5.0195-7.2969 2.8945l-41.023-31.734c-0.83203-0.64453-1.7383-0.95312-2.7891-0.95312h-99.234c-2.5117 0-4.5586 2.0508-4.5586 4.5625v29.645c0 2.5117-2.0508 4.5586-4.5625 4.5586h-59.473c-1.1055 0-2.0547-0.33984-2.9062-1.0469l-24.406-20.18c-1.2969-1.0742-2.9453-1.3477-4.5195-0.75l-165.47 62.57 21.891 31.922h55.023c-0.91797-3.668-1.4062-7.5078-1.4062-11.457 0-26.012 21.086-47.102 47.102-47.102 26.012 0 47.102 21.086 47.102 47.102 0 3.9531-0.48828 7.7891-1.4062 11.457zm11.598-28.641c-2.4258 0-4.3945 1.9688-4.3945 4.3945s1.9688 4.3945 4.3945 4.3945h172.75c2.4258 0 4.3945-1.9688 4.3945-4.3945s-1.9688-4.3945-4.3945-4.3945z" fill-rule="evenodd"/>
  <path d="m585.43 228.79 5.7617-18.164h-61.645l-3.6641 18.164z" fill-rule="evenodd"/>
  <path d="m591.19 201.84 4.7188-14.883c0.44141-1.3906 0.082031-2.7812-0.80859-3.9336-0.89453-1.1523-2.1484-1.7695-3.6055-1.7695h-54.066c-2.2617 0-4.0586 1.6289-4.5039 3.8477l-3.375 16.738z" fill-rule="evenodd"/>
 </g>
</svg>
